<?xml version="1.0" encoding="UTF-8" standalone="no"?>
<!DOCTYPE svg PUBLIC "-//W3C//DTD SVG 1.1//EN" "http://www.w3.org/Graphics/SVG/1.1/DTD/svg11.dtd">
<svg width="100%" height="100%" viewBox="0 0 583 804" version="1.1" xmlns="http://www.w3.org/2000/svg" xmlns:xlink="http://www.w3.org/1999/xlink" xml:space="preserve" xmlns:serif="http://www.serif.com/" style="fill-rule:evenodd;clip-rule:evenodd;stroke-linejoin:round;stroke-miterlimit:2;">
    <g transform="matrix(1,0,0,1,-234.565,-479.46)">
        <g transform="matrix(1,0,0,1,20.2015,-888.128)">
            <g transform="matrix(1.00122,0,0,1.05637,-388.337,24.125)">
                <path d="M1158.69,1310.07L1158.69,1341.63C1158.69,1349.7 1151.77,1356.25 1143.26,1356.25L1113.3,1356.25C1104.79,1356.25 1097.87,1349.7 1097.87,1341.63L1097.87,1310.07C1097.87,1301.99 1104.79,1295.44 1113.3,1295.44L1143.26,1295.44C1151.77,1295.44 1158.69,1301.99 1158.69,1310.07Z" style="fill:rgb(255,183,3);"/>
                <path d="M1183.66,1310.07L1183.66,1341.63L1182.84,1349.32L1180.47,1356.54L1176.74,1363.05L1171.82,1368.7L1165.86,1373.36L1158.99,1376.9L1151.38,1379.14L1143.26,1379.92L1113.3,1379.92L1105.18,1379.14L1097.57,1376.9L1090.7,1373.36L1084.74,1368.7L1079.82,1363.05L1076.09,1356.54L1073.72,1349.32L1072.9,1341.63L1072.9,1310.07L1073.72,1302.37L1076.09,1295.15L1079.82,1288.64L1084.74,1282.99L1090.7,1278.33L1097.57,1274.79L1105.18,1272.55L1113.3,1271.77L1143.26,1271.77L1151.38,1272.55L1158.99,1274.79L1165.86,1278.33L1171.82,1282.99L1176.74,1288.64L1180.47,1295.15L1182.84,1302.37L1183.66,1310.07ZM1158.69,1310.07C1158.69,1301.99 1151.77,1295.44 1143.26,1295.44L1113.3,1295.44C1104.79,1295.44 1097.87,1301.99 1097.87,1310.07L1097.87,1341.63C1097.87,1349.7 1104.79,1356.25 1113.3,1356.25L1143.26,1356.25C1151.77,1356.25 1158.69,1349.7 1158.69,1341.63L1158.69,1310.07Z"/>
            </g>
            <g transform="matrix(1,0,0,1.08601,-429.616,-37.8047)">
                <path d="M1009.09,1504.4C1009.02,1503.78 1008.99,1503.15 1008.98,1502.51L1008.78,1464.47C1008.78,1463.28 1008.88,1462.12 1009.09,1460.99L1009.09,1390.12C1009.09,1382.47 1015.29,1376.27 1022.94,1376.27L1050.63,1376.27C1058.28,1376.27 1064.49,1382.47 1064.49,1390.12L1064.49,1445.16L1120.99,1444.86C1131.59,1444.81 1140.24,1453.28 1140.3,1463.78L1140.49,1501.82C1140.55,1512.32 1131.99,1520.88 1121.39,1520.94L1084.27,1521.13C1078.01,1522.12 1067.57,1533.32 1064.49,1535.72L1064.49,1569.53C1064.49,1577.17 1058.28,1583.38 1050.63,1583.38L1022.94,1583.38C1015.29,1583.38 1009.09,1577.17 1009.09,1569.53L1009.09,1504.4Z" style="fill:rgb(255,183,3);"/>
                <path d="M1091.31,1544.12L1089.49,1545.71L1089.49,1569.53L1088.77,1576.59L1086.69,1583.28L1083.34,1589.43L1078.82,1594.91L1073.17,1599.57L1066.46,1603.21L1058.85,1605.57L1050.63,1606.4L1022.94,1606.4L1014.72,1605.57L1007.11,1603.21L1000.4,1599.57L994.754,1594.91L990.228,1589.43L986.883,1583.28L984.802,1576.59L984.087,1569.53L984.087,1504.5L983.984,1502.62L983.784,1464.58L984.429,1457.19L984.087,1460.99L984.087,1390.12L984.802,1383.06L986.883,1376.37L990.228,1370.21L994.754,1364.73L1000.4,1360.08L1007.11,1356.44L1014.72,1354.08L1022.94,1353.25L1050.63,1353.25L1058.85,1354.08L1066.46,1356.44L1073.17,1360.08L1078.82,1364.73L1083.34,1370.21L1086.69,1376.37L1088.77,1383.06L1089.49,1390.12L1089.49,1422.01L1120.85,1421.84L1130.1,1422.72L1138.7,1425.31L1146.33,1429.36L1152.82,1434.6L1158.06,1440.82L1161.96,1447.85L1164.42,1455.54L1165.29,1463.67L1165.49,1501.71L1164.7,1509.85L1162.33,1517.55L1158.5,1524.62L1153.33,1530.88L1146.91,1536.18L1139.34,1540.3L1130.77,1542.99L1121.53,1543.96L1091.31,1544.12ZM1009.09,1504.4L1009.09,1569.53C1009.09,1577.17 1015.29,1583.38 1022.94,1583.38L1050.63,1583.38C1058.28,1583.38 1064.49,1577.17 1064.49,1569.53L1064.49,1535.72C1067.57,1533.32 1078.01,1522.12 1084.27,1521.13L1121.39,1520.94C1131.99,1520.88 1140.55,1512.32 1140.49,1501.82L1140.3,1463.78C1140.24,1453.28 1131.59,1444.81 1120.99,1444.86L1064.49,1445.16L1064.49,1390.12C1064.49,1382.47 1058.28,1376.27 1050.63,1376.27L1022.94,1376.27C1015.29,1376.27 1009.09,1382.47 1009.09,1390.12L1009.09,1460.99C1008.88,1462.12 1008.78,1463.28 1008.78,1464.47L1008.98,1502.51C1008.99,1503.15 1009.02,1503.78 1009.09,1504.4Z"/>
            </g>
            <g transform="matrix(1.01294,0,0,0.917036,-440.693,220.308)">
                <path d="M1007.13,1504.84L1007.13,1995.76C1007.13,2044.74 971.127,2084.5 926.786,2084.5L766.104,2084.5C721.762,2084.5 685.763,2044.74 685.763,1995.76L685.763,1504.84C685.763,1455.86 721.762,1416.1 766.104,1416.1L926.786,1416.1C971.127,1416.1 1007.13,1455.86 1007.13,1504.84Z" style="fill:rgb(255,183,3);"/>
                <path d="M1046.2,1504.84L1046.2,1995.76C1046.2,2068.56 992.695,2127.67 926.786,2127.67L766.104,2127.67C700.195,2127.67 646.685,2068.56 646.685,1995.76L646.685,1504.84C646.685,1432.04 700.195,1372.93 766.104,1372.93L926.786,1372.93C992.695,1372.93 1046.2,1432.04 1046.2,1504.84ZM1007.13,1504.84C1007.13,1455.86 971.127,1416.1 926.786,1416.1L766.104,1416.1C721.762,1416.1 685.763,1455.86 685.763,1504.84L685.763,1995.76C685.763,2044.74 721.762,2084.5 766.104,2084.5L926.786,2084.5C971.127,2084.5 1007.13,2044.74 1007.13,1995.76L1007.13,1504.84Z"/>
            </g>
            <g transform="matrix(1.43954,0,0,1.43954,-127.77,-589.751)">
                <circle cx="378.231" cy="1546.67" r="50.786"/>
            </g>
            <g transform="matrix(1,0,0,1,-35.8083,75.4883)">
                <circle cx="452.517" cy="1561.26" r="34.242" style="fill:white;"/>
            </g>
            <g transform="matrix(1,0,0,1,-429.616,80.5659)">
                <path d="M1009.09,1577.09C1009.22,1577.1 1009.32,1577.16 1009.41,1577.23C1027.97,1592.21 1084.56,1602.39 1096.47,1626.25C1108.74,1650.83 1113.3,1702.63 1105.58,1731.99C1100.41,1751.65 1096.22,1772.17 1086.46,1789.91C1076.69,1807.66 1061.6,1825.81 1047.01,1838.45C1039.26,1845.17 1029.56,1848.91 1020.65,1854.18C1013.49,1858.42 1006.1,1862.15 998.955,1865.79C972.645,1879.2 920.993,1887.74 879.196,1888.96C841.537,1890.06 794.857,1884.38 770.975,1873C751.957,1863.93 731.434,1854.66 738.036,1841.55C741.22,1835.23 747.532,1828.25 754.609,1828.28C769.556,1828.33 822.601,1848.08 827.713,1841.88C834.134,1834.1 804.707,1825.92 789.165,1825.94C767.573,1825.97 728.373,1812.36 722.154,1797.8C718.84,1790.04 720.042,1776.07 727.965,1773.17C736.298,1770.11 758.819,1777.1 772.155,1779.49C784.2,1781.64 798.033,1785.21 807.982,1787.47C817.153,1789.56 833.073,1791.56 833.15,1784.8C833.248,1776.26 803.133,1770.99 784.436,1771.14C762.764,1771.32 730.942,1757.7 733.433,1738.89C734.149,1733.49 736.391,1726.52 741.523,1724.68C747.364,1722.6 759.576,1725.06 768.485,1726.37C780.184,1728.1 798.196,1733.27 811.721,1735.04C824.269,1736.68 848.212,1741.8 849.635,1737.01C850.061,1735.57 824.916,1723.09 825.279,1708.31C825.578,1696.16 828.678,1684.95 844.138,1686.33C853.483,1687.16 868.476,1696.02 880.95,1699.98C896.08,1704.79 916.503,1718.33 934.919,1715.16C954.577,1711.77 1009.19,1697.79 1009.05,1672.41C1008.87,1641.03 1009.08,1593.92 1009.09,1577.99C1009.09,1577.61 1009.09,1577.23 1009.09,1576.85"/>
            </g>
        </g>
    </g>
</svg>
